<svg width="79" height="40" fill="none" xmlns="http://www.w3.org/2000/svg"><path d="M74.811 35.594l-7.097-1.16v-.927l6.865-.232-.117-1.739h-8.726l-.465 4.406 7.213 1.275v.812l-7.562.348L64.689 40h10.588l-.466-4.406zM6.865 34.9l-.117 1.623 2.56.116v1.623l-5.469-.116.233-4.754 7.446-.116-.116-1.739H1.745L.931 40h10.937l-.233-5.217-4.77.116zm46.422 3.13v-1.507l5.12-.116v-1.623l-5.236-.116V33.16l6.864-.115v-1.74h-9.307L50.495 40h9.773l-.116-1.74-6.865-.231zM45.841 40l-.93-8.58h-2.444l-3.607 4.058-3.607-4.058H32.81L31.996 40h2.908l.233-5.565 3.723 3.826 3.723-3.826.233 5.565h3.025zM33.508 0h-5.817l-.466 26.55h6.981L33.508 0zm23.735 0h-18.15l-.698 26.55h20.128L57.243 0zm-5.585 20.754l-6.399.231-.349-15.652 6.748.232v15.189zM79 5.797L78.302 0H60.384l.233 5.101 5.701.232.582 21.218h7.097L71.903 5.565 79 5.797zM16.289 26.551h7.679l-5.003-11.942 3.956-2.203L20.244 0H.698L0 5.797l4.421-.116-2.094 20.986h6.864l.233-6.725 4.887-2.667 1.978 9.276zM9.773 5.333l5.585-.116.698 5.334-6.516 3.014.233-8.232zM24.898 40h2.91l-2.328-8.58H18.5L16.171 40h2.909l.465-2.203 4.77.116.582 2.087zm-4.886-3.826l.581-2.783 2.793-.116.582 2.783-3.956.116z" fill="#fff"/></svg>